/* XPM */
static char *result[] = {
/* columns rows colors chars-per-pixel */
"32 32 166 2 ",
"   c black",
".  c #030201",
"X  c #060402",
"o  c #06060E",
"O  c #160003",
"+  c #120206",
"@  c #180002",
"#  c #100A04",
"$  c #140C05",
"%  c #260E00",
"&  c #260F03",
"*  c #250F05",
"=  c #3A1F0F",
"-  c #250D13",
";  c #2C0A1A",
":  c #311617",
">  c #32131B",
",  c #00341C",
"<  c #312214",
"1  c #352517",
"2  c #3E2314",
"3  c #3B0E24",
"4  c #3C2820",
"5  c #54381E",
"6  c #42122A",
"7  c #4E102D",
"8  c #44342F",
"9  c #4C362E",
"0  c #42382B",
"q  c #523D27",
"w  c #533C30",
"e  c #004627",
"r  c #01673C",
"t  c #01693E",
"y  c #4F4F17",
"u  c #5D4126",
"i  c #674D32",
"p  c #6C4D35",
"a  c #6D503A",
"s  c #6D523D",
"d  c #72573D",
"f  c #552D40",
"g  c #5E3246",
"h  c #7A2951",
"j  c #5C4944",
"k  c #5F4E47",
"l  c #505041",
"z  c #775C4B",
"x  c #766652",
"c  c #746155",
"v  c #9E2064",
"b  c #AF246E",
"n  c #C13E7F",
"m  c #82644E",
"M  c #8A674A",
"N  c #8A694D",
"B  c #916D4F",
"V  c #826852",
"C  c #876C50",
"Z  c #896D58",
"A  c #8B7155",
"S  c #B7427C",
"D  c #927E66",
"F  c #937E69",
"G  c #937F6B",
"H  c #02A162",
"J  c #AD8257",
"K  c #A6845E",
"L  c #AE8259",
"P  c #B88B5F",
"I  c #B49770",
"U  c #BC9E75",
"Y  c #BBA078",
"T  c #196A86",
"R  c #D32C86",
"E  c #D42C84",
"W  c #D52D84",
"Q  c #D52D85",
"!  c #D7348A",
"~  c #D83388",
"^  c #DD3D8E",
"/  c #C84A87",
"(  c #CC4C8A",
")  c #D64F90",
"_  c #DC4D97",
"`  c #DB5294",
"'  c #DE5296",
"]  c #E4559B",
"[  c #E8509A",
"{  c #EC569F",
"}  c #EC579F",
"|  c #ED59A0",
" . c #ED5AA1",
".. c #EE5FA4",
"X. c #ED62A5",
"o. c #EE65A7",
"O. c #EE72AD",
"+. c #EE7FB4",
"@. c #2081A3",
"#. c #36C5F6",
"$. c #958780",
"%. c #AB988B",
"&. c #B59981",
"*. c #B19E90",
"=. c #BBA183",
"-. c #BCA789",
";. c #B9A594",
":. c #BCAA9C",
">. c #C7AE8F",
",. c #D3BA98",
"<. c #E583B1",
"1. c #EF83B5",
"2. c #EF89B7",
"3. c #EF88B8",
"4. c #EF8DB9",
"5. c #F98CBF",
"6. c #EF94BD",
"7. c #F8A0AB",
"8. c #DFC399",
"9. c #DAC09E",
"0. c #E1C89E",
"q. c #E4CCA2",
"w. c #E1CCA9",
"e. c #ECD6AF",
"r. c #E4D1B0",
"t. c #EDD8B1",
"y. c #EAD9B8",
"u. c #F2E0BD",
"i. c #F2E1BF",
"p. c #F891C0",
"a. c #F09DC2",
"s. c #EFA3C5",
"d. c #EFA6C6",
"f. c #F7A0C7",
"g. c #F6ABCB",
"h. c #F8AECC",
"j. c #F7B0CD",
"k. c gray81",
"l. c #C2D4CC",
"z. c #D7D2CF",
"x. c #F1E0C0",
"c. c #F5E5C5",
"v. c #F5E5C6",
"b. c #F5E6C8",
"n. c #F7E8C9",
"m. c #F7E8CB",
"M. c #F8E9CC",
"N. c #F8EBCE",
"B. c #F9EBCF",
"V. c #F9ECCF",
"C. c #E4E1DF",
"Z. c #FAEDD1",
"A. c #FAEFD6",
"S. c #ECE6E2",
"D. c #F2EEEB",
"F. c #F1EFEE",
"G. c #F1F0EF",
"H. c #FCF4E8",
"J. c #FAF6EE",
"K. c #FFFBF3",
"L. c #FCF9F4",
"P. c #FCFAF6",
"I. c #FFFDF9",
"U. c #FEFCFA",
"Y. c #FFFEFD",
"T. c white",
/* pixels */
"7.7.7.7.7.7.7.7.7.7.7.7.7.7.7.7.7.7.7.7.7.7.7.7.7.7.7.7.7.7.7.7.",
"7.7.7.7.7.7.7.7.7.7.7.7.7.7.7.7.7.7.7.7.7.7.7.7.7.7.7.7.7.7.7.7.",
"7.7.7.7.7.7.7.7.7.7.7.7.7.7.7.7.7.7.7.7.7.7.7.7.7.7.7.7.7.7.7.7.",
"7.7.7.7.7.7.7.7.7.7.7.7.7.7.7.7.7.7.7.7.7.7.7.7.7.7.7.7.7.7.7.7.",
"7.7.7.7.7.7.7.7.7.7.7.7.7.7.7.7.7.7.7.7.7.7.7.7.7.7.7.7.7.7.7.7.",
"7.7.7.7.7.7.7.7.7.7.7.7.7.7.7.7.7.7.7.7.7.7.7.7.7.7.7.7.7.7.7.7.",
"7.7.7.7.7.7.7.7.7.7.7.7.s p p p p p p a 7.7.7.7.7.7.7.7.7.7.7.7.",
"7.7.7.7.7.7.7.7.7.7.B K 0.  0 9.>.x X q.K B 7.7.7.7.7.7.7.7.7.7.",
"7.7.7.7.7.7.7.7.C Y u.  3.d.d.d.a.g | &.  i.=.d 7.7.7.7.7.7.7.7.",
"7.7.7.7.7.7.7.5 w.B.9.3.d.3.<.3.3.f 2.| ~   V.w.u 7.7.7.7.7.7.7.",
"7.7.7.7.7.7.N e.N.2.d.4.2.O.| ) |  .1.2.3.|   m.t.M 7.7.7.7.7.7.",
"7.7.7.7.7.j I N.6.3.3.3. .r  .o |  .;  .| X.W 8.b.U j 7.7.7.7.7.",
"7.7.7.7.7.V r.v.d.2.e o.| ! R R H | |  .|  .~ 1 x.y.V 7.7.7.7.7.",
"7.7.7.7.7.A n.  s.| | | R : #     J {  .| | | E c.M.A 7.7.7.7.7.",
"7.7.7.7.7.F Z.,.+.| | h b q K.K.K.K.P t | /  .E   Z.F 7.7.7.7.7.",
"7.7.7.7.7.F Z.-.#.|  . .7 K.K.K.K.K.   .|  .| E   Z.F 7.7.7.7.7.",
"7.7.7.7.7.G A.D | l.` ( v K.K.K.K.K.9...k.| | E $ A.G 7.7.7.7.7.",
"7.7.7.7.7.$.T.P E  . . ._ . K.K.K.K.9. . . .O Q   T.$.7.7.7.7.7.",
"7.7.7.7.7.$.T.  n | | | | f.9.    9.5. .| | } W H.T.$.7.7.7.7.7.",
"7.7.7.7.7.9 z.L.i [ T  .@ ] j.h.p.g. . .@. .E P J.C.4 7.7.7.7.7.",
"7.7.7.7.7.j %.U.< E | , | l |  .} | | | | E -   P.*.8 7.7.7.7.7.",
"7.7.7.7.7.7.2 T.P.P ~ E ' | | 6 | | S | | P   P.T.= 7.7.7.7.7.7.",
"7.7.7.7.7.7.7.m F.Y.P W |  . .+ y  .Q E E L T.G.Z 7.7.7.7.7.7.7.",
"7.7.7.7.7.7.7.7.c ;.I.  E E Q Q ^ E E >   T.:.k 7.7.7.7.7.7.7.7.",
"7.7.7.7.7.7.7.7.7.7.w z S.    P 3 E T.D.z w 7.7.7.7.7.7.7.7.7.7.",
"7.7.7.7.7.7.7.7.7.7.7.7.* % % % % % % & 7.7.7.7.7.7.7.7.7.7.7.7.",
"7.7.7.7.7.7.7.7.7.7.7.7.7.7.7.7.7.7.7.7.7.7.7.7.7.7.7.7.7.7.7.7.",
"7.7.7.7.7.7.7.7.7.7.7.7.7.7.7.7.7.7.7.7.7.7.7.7.7.7.7.7.7.7.7.7.",
"7.7.7.7.7.7.7.7.7.7.7.7.7.7.7.7.7.7.7.7.7.7.7.7.7.7.7.7.7.7.7.7.",
"7.7.7.7.7.7.7.7.7.7.7.7.7.7.7.7.7.7.7.7.7.7.7.7.7.7.7.7.7.7.7.7.",
"7.7.7.7.7.7.7.7.7.7.7.7.7.7.7.7.7.7.7.7.7.7.7.7.7.7.7.7.7.7.7.7.",
"7.7.7.7.7.7.7.7.7.7.7.7.7.7.7.7.7.7.7.7.7.7.7.7.7.7.7.7.7.7.7.7."
};
