/* XPM */
static char *result[] = {
/* columns rows colors chars-per-pixel */
"32 32 97 2 ",
"   c #2A2830",
".  c #36384A",
"X  c #333C5B",
"o  c #4D5D89",
"O  c #48618A",
"+  c #4B648D",
"@  c #4D6291",
"#  c #4E6290",
"$  c #4F6292",
"%  c #496493",
"&  c #516495",
"*  c #556298",
"=  c #506498",
"-  c #526599",
";  c #5A77AC",
":  c #476EBA",
">  c #4A6FBF",
",  c #4571BE",
"<  c #4570BF",
"1  c #4674BD",
"2  c #4C72BB",
"3  c #4B70BF",
"4  c #4A74BF",
"5  c #5D74B3",
"6  c #5A78B6",
"7  c #5C7AB8",
"8  c #5F79BB",
"9  c #5F7BBD",
"0  c #627ABD",
"q  c #4B70C0",
"w  c #4B70C1",
"e  c #4971C3",
"r  c #4C73C1",
"t  c #4C71C2",
"y  c #4E76C5",
"u  c #4F76C5",
"i  c #5F7AC3",
"p  c #587DC7",
"a  c #6280BD",
"s  c #6887CD",
"d  c #6788CF",
"f  c #658DD3",
"g  c #6989D0",
"h  c #6B8ED6",
"j  c #668AD8",
"k  c #6A8FDA",
"l  c #688DDD",
"z  c #688EDE",
"x  c #688EDF",
"c  c #6C8EDD",
"v  c #6690DF",
"b  c #6694DF",
"n  c #6D92DB",
"m  c #6C91DC",
"M  c #6D93DF",
"N  c #6F92DE",
"B  c #668BE0",
"V  c #6394E0",
"C  c #6795E0",
"Z  c #6992E2",
"A  c #6C91E1",
"S  c #6D92E0",
"D  c #6C93E1",
"F  c #6C93E2",
"G  c #6C92E3",
"H  c #6C93E3",
"J  c #6D93E3",
"K  c #6E92E3",
"L  c #6B94E1",
"P  c #6A94E2",
"I  c #6D94E0",
"U  c #6D95E1",
"Y  c #6D96E1",
"T  c #6D94E2",
"R  c #6D94E3",
"E  c #6893E4",
"W  c #6B93E7",
"Q  c #6D93E4",
"!  c #6E93E5",
"~  c #6895E4",
"^  c #6E94E5",
"/  c #6F95E6",
"(  c #7093E2",
")  c #7196E1",
"_  c #7097E1",
"`  c #7091E5",
"'  c #7299E6",
"]  c #7298E9",
"[  c #739AE9",
"{  c #7198EB",
"}  c #759AEB",
"|  c #729AEF",
" . c #7499ED",
".. c #7694F3",
"X. c #749AF1",
"o. c #729CF0",
"O. c #F8A0AB",
/* pixels */
"O.O.O.O.O.O.O.1 w 3 3 3 3 3 3 3 3 3 3 3 3 3 3 q , O.O.O.O.O.O.O.",
"O.O.O.O.O.O.O.4 e q q q q q q q q q q q q q t > : O.O.O.O.O.O.O.",
"O.O.O.O.O.O.O.4 z R R U H H H H H H H H H ~ R y < O.O.O.O.O.O.O.",
"O.O.O.O.O.O.O.4 z R R h k k k k k k k k k v R y < O.O.O.O.O.O.O.",
"O.O.O.O.O.O.O.4 z Q o.a  . . . . . . ...+ b R y < O.O.O.O.O.O.O.",
"O.O.O.O.O.O.O.4 z Q o.9 R R R R R R R ` @ C R y < O.O.O.O.O.O.O.",
"O.O.O.O.O.O.O.4 z Q o.9 R R R R R R R ` @ C R y < O.O.O.O.O.O.O.",
"O.O.O.O.O.O.O.4 z Q o.9 R R R R R R R ` @ C R y < O.O.O.O.O.O.O.",
"O.O.O.O.O.O.O.4 z Q o.9 R R R R R R R ` @ C R y < O.O.O.O.O.O.O.",
"O.O.O.O.O.O.O.4 z Q o.9 R R R R R R R ` @ C R y < O.O.O.O.O.O.O.",
"O.O.O.O.O.O.O.4 z Q o.9 R R R R R R R ` @ C R y < O.O.O.O.O.O.O.",
"O.O.O.O.O.O.O.4 z Q o.9 R R R R R R R ` @ C R y < O.O.O.O.O.O.O.",
"O.O.O.O.O.O.O.4 z Q o.9 R R R R R R R ` @ C R y < O.O.O.O.O.O.O.",
"O.O.O.O.O.O.O.4 z Q o.9 R R R R R R R ` @ C R y < O.O.O.O.O.O.O.",
"O.O.O.O.O.O.O.4 f Y { i M R R R R R R ` @ C R y < O.O.O.O.O.O.O.",
"O.O.O.O.O.O.O.4 l ; .   X Z R R R R R ` @ C R y < O.O.O.O.O.O.O.",
"O.O.O.O.O.O.O.4 B o X.8 W I R R R R R ` @ C R y < O.O.O.O.O.O.O.",
"O.O.O.O.O.O.O.4 z G o.9 R R R R R R R ` @ C R y < O.O.O.O.O.O.O.",
"O.O.O.O.O.O.O.4 z Q o.9 R R R R R R R ` @ C R y < O.O.O.O.O.O.O.",
"O.O.O.O.O.O.O.4 z Q o.9 R R R R R R R ` @ C R y < O.O.O.O.O.O.O.",
"O.O.O.O.O.O.O.4 z G | % 7 7 7 7 7 7 7 6 O K R y < O.O.O.O.O.O.O.",
"O.O.O.O.O.O.O.4 z R R m A A A A A A A A A ' R y < O.O.O.O.O.O.O.",
"O.O.O.O.O.O.O.4 z F [ 0 5 5 5 5 5 5 5 5 5 } R y < O.O.O.O.O.O.O.",
"O.O.O.O.O.O.O.4 z Q o.& ! ! ! ! ! ! ! ( * S R y < O.O.O.O.O.O.O.",
"O.O.O.O.O.O.O.4 z Q o.- R R R R R R R ^ # S R y < O.O.O.O.O.O.O.",
"O.O.O.O.O.O.O.4 z Q o.- R R R R R R R ^ # S R y < O.O.O.O.O.O.O.",
"O.O.O.O.O.O.O.4 z Q o.= D D D D D D D / $ S R y < O.O.O.O.O.O.O.",
"O.O.O.O.O.O.O.4 z T ] d s s s s s s s g j V R y < O.O.O.O.O.O.O.",
"O.O.O.O.O.O.O.4 z J T N P P P P P P P L E c R y < O.O.O.O.O.O.O.",
"O.O.O.O.O.O.O.4 z R R R R R R R R R R R R R R y < O.O.O.O.O.O.O.",
"O.O.O.O.O.O.O.4 x R R R R R R R R R R R R R R u < O.O.O.O.O.O.O.",
"O.O.O.O.O.O.O.r n _ _ _ _ _ _ _ _ _ _ _ _ _ ) p 2 O.O.O.O.O.O.O."
};
