/* XPM */
static char *result[] = {
/* columns rows colors chars-per-pixel */
"32 32 199 2 ",
"   c #1F1414",
".  c #241712",
"X  c #211A13",
"o  c #221915",
"O  c #221816",
"+  c #221817",
"@  c #241816",
"#  c #251A17",
"$  c #261719",
"%  c #221818",
"&  c #231918",
"*  c #221A18",
"=  c #23191A",
"-  c #241919",
";  c #261819",
":  c #241A18",
">  c #241A19",
",  c #241B19",
"<  c #281E1C",
"1  c #2A1E1E",
"2  c #27211E",
"3  c #28201E",
"4  c #29201E",
"5  c #28211E",
"6  c #29201F",
"7  c #29211F",
"8  c #29221F",
"9  c #262224",
"0  c #292020",
"q  c #27252B",
"w  c #2A2833",
"e  c #3D4158",
"r  c #3A4D78",
"t  c #3A4E78",
"y  c #3A5277",
"u  c #42527E",
"i  c #46577F",
"p  c #4A577F",
"a  c #475880",
"s  c #455A83",
"d  c #455985",
"f  c #4C5980",
"g  c #485C85",
"h  c #485E84",
"j  c #4B5D86",
"k  c #495E8D",
"l  c #4B608F",
"z  c #4C6090",
"x  c #4A6590",
"c  c #4C6591",
"v  c #4E6692",
"b  c #4D6096",
"n  c #4E6598",
"m  c #4E649E",
"M  c #526193",
"N  c #526593",
"B  c #506194",
"V  c #526195",
"C  c #516295",
"Z  c #516495",
"A  c #4C69A0",
"S  c #406FAB",
"D  c #536BA0",
"F  c #576AA0",
"G  c #5369A5",
"H  c #546BA4",
"J  c #5970A6",
"K  c #5776AE",
"L  c #5971AF",
"P  c #5A73AF",
"I  c #5C71AD",
"U  c #5C70AE",
"Y  c #436CB6",
"T  c #426CBB",
"R  c #426CBC",
"E  c #4E71B9",
"W  c #4B70BF",
"Q  c #4872BF",
"!  c #4C74BC",
"~  c #4478B9",
"^  c #5577B6",
"/  c #5A72B1",
"(  c #5B74B0",
")  c #5074BB",
"_  c #5072BE",
"`  c #5277BD",
"'  c #5D7CBB",
"]  c #6078B3",
"[  c #4772C1",
"{  c #4B70C0",
"}  c #4B70C1",
"|  c #4B73C0",
" . c #4B73C1",
".. c #4972C2",
"X. c #4A72C2",
"o. c #4A73C3",
"O. c #4C72C3",
"+. c #4B74C4",
"@. c #4975C6",
"#. c #4F74C5",
"$. c #4C77C8",
"%. c #4E74CA",
"&. c #4E75CA",
"*. c #4E76CA",
"=. c #4E75CF",
"-. c #4E7AC8",
";. c #5173C6",
":. c #5178C3",
">. c #6679C1",
",. c #5E82C1",
"<. c #6682C5",
"1. c #6B85C4",
"2. c #6484CE",
"3. c #6389CE",
"4. c #698BD2",
"5. c #688FD9",
"6. c #6B8ED8",
"7. c #6690DD",
"8. c #6B93DA",
"9. c #6A91DF",
"0. c #6993DF",
"q. c #6B93DE",
"w. c #6B92DF",
"e. c #6E90DC",
"r. c #6C90DF",
"t. c #6D93DE",
"y. c #6894DE",
"u. c #6994DE",
"i. c #6A95DF",
"p. c #6D94DF",
"a. c #658FE1",
"s. c #688EE0",
"d. c #6D8CE1",
"f. c #6795E1",
"g. c #6797E4",
"h. c #6A91E0",
"j. c #6992E0",
"k. c #6892E1",
"l. c #6B93E0",
"z. c #6B92E1",
"x. c #6A91E2",
"c. c #6B91E3",
"v. c #6B92E2",
"b. c #6A93E2",
"n. c #6B92E3",
"m. c #6A93E3",
"M. c #6C90E1",
"N. c #6C91E1",
"B. c #6C93E1",
"V. c #6E92E0",
"C. c #6F93E0",
"Z. c #6E92E1",
"A. c #6C91E2",
"S. c #6D91E2",
"D. c #6C92E2",
"F. c #6C93E2",
"G. c #6C92E3",
"H. c #6D92E3",
"J. c #6D93E3",
"K. c #6E92E2",
"L. c #6E92E3",
"P. c #6894E1",
"I. c #6994E1",
"U. c #6995E1",
"Y. c #6A95E0",
"T. c #6A95E1",
"R. c #6B95E3",
"E. c #6D94E1",
"W. c #6E94E0",
"Q. c #6C94E2",
"!. c #6C94E3",
"~. c #6D94E3",
"^. c #6E94E3",
"/. c #6B92E5",
"(. c #6A92E6",
"). c #6A92E7",
"_. c #6D90E4",
"`. c #6C91E5",
"'. c #6F90E4",
"]. c #6C93E4",
"[. c #6D93E4",
"{. c #6F93E4",
"}. c #6D92E6",
"|. c #6E93E6",
" X c #6995E4",
".X c #6C94E4",
"XX c #6D95E5",
"oX c #6E94E5",
"OX c #6C94E6",
"+X c #6E95E7",
"@X c #6A91E9",
"#X c #6B93E9",
"$X c #6E94E8",
"%X c #6E92ED",
"&X c #6F99EF",
"*X c #7193E0",
"=X c #7096E5",
"-X c #7499E5",
";X c #F8A0AB",
/* pixels */
";X;X;X;X;X;X;X@.W W W W W W W W W W W W W W { } Y ;X;X;X;X;X;X;X",
";X;X;X;X;X;X;X!  .*.&.&.&.&.&.&.&.%.#.=.$.-.| ` T ;X;X;X;X;X;X;X",
";X;X;X;X;X;X;XX.r > > * = : - $ X w D &X0.F.p.o.T ;X;X;X;X;X;X;X",
";X;X;X;X;X;X;XX.r > > . >.h./.g.L.b._.y.-Xd.8.o.T ;X;X;X;X;X;X;X",
";X;X;X;X;X;X;XX.r > > % Z.XXi.<.p U H z %XZ u.O.T ;X;X;X;X;X;X;X",
";X;X;X;X;X;X;XX.r > > % n.( ^.~.~.~.~.~.m.B r.Q T ;X;X;X;X;X;X;X",
";X;X;X;X;X;X;XX.r > > % n.P !.~.~.~.~.~.m.C C.:.T ;X;X;X;X;X;X;X",
";X;X;X;X;X;X;XX.r > > % n.P F.~.~.~.~.~.m.V M.[ T ;X;X;X;X;X;X;X",
";X;X;X;X;X;X;XX.r > > % n.P F.~.~.~.~.~.m.M N.o.T ;X;X;X;X;X;X;X",
";X;X;X;X;X;X;XX.r > > % n.P F.~.~.~.~.~.m.M N.o.T ;X;X;X;X;X;X;X",
";X;X;X;X;X;X;XX.r > > % n.P F.~.~.~.~.~.m.M N.o.T ;X;X;X;X;X;X;X",
";X;X;X;X;X;X;XX.r > > % n.P F.~.~.~.~.~.m.M N.o.T ;X;X;X;X;X;X;X",
";X;X;X;X;X;X;XX.r > > % n.P F.~.~.~.~.~.m.M N.o.T ;X;X;X;X;X;X;X",
";X;X;X;X;X;X;XX.r > > % n.P F.~.~.~.~.~.m.M N.o.T ;X;X;X;X;X;X;X",
";X;X;X;X;X;X;XX.r > > ; .XL F.~.~.~.~.~.m.M N.o.T ;X;X;X;X;X;X;X",
";X;X;X;X;X;X;XX.r > > # f m x.z.~.~.~.~.m.M N.o.T ;X;X;X;X;X;X;X",
";X;X;X;X;X;X;XX.r > > @ l ^ ] F.~.~.~.~.m.M N.o.T ;X;X;X;X;X;X;X",
";X;X;X;X;X;X;XX.r > > % n./ ~.~.~.~.~.~.m.M N.o.T ;X;X;X;X;X;X;X",
";X;X;X;X;X;X;XX.r > > % n.P ~.~.~.~.~.~.m.M N.o.T ;X;X;X;X;X;X;X",
";X;X;X;X;X;X;XX.r > > % n.P ~.~.~.~.~.~.m.M N.o.T ;X;X;X;X;X;X;X",
";X;X;X;X;X;X;XX.r > > % l.J h i a g b F K x A.o.T ;X;X;X;X;X;X;X",
";X;X;X;X;X;X;XX.r > > % Q.a.E.[.$X{.+Xz.I.@Xs.o.T ;X;X;X;X;X;X;X",
";X;X;X;X;X;X;XX.r > > % `.I 5.Y.k.6.4.2.' y V.o.T ;X;X;X;X;X;X;X",
";X;X;X;X;X;X;XX.r > > % G.P ].S.}.R.P.P.*Xc m.o.T ;X;X;X;X;X;X;X",
";X;X;X;X;X;X;XX.r > > % n.P F.~.~.~.~.~.K.v j._ T ;X;X;X;X;X;X;X",
";X;X;X;X;X;X;XX.r > > % n.P F.~.~.~.~.~.K.v OX~ T ;X;X;X;X;X;X;X",
";X;X;X;X;X;X;XX.r > > % '.A s N 3.F.|.q.oXn f.S T ;X;X;X;X;X;X;X",
";X;X;X;X;X;X;XX.r > > % G.F.J.t.#Xe.,.j k d =Xo.T ;X;X;X;X;X;X;X",
";X;X;X;X;X;X;XX.r > > + D.~.~.A.Y.!.T.~.H.).9.o.T ;X;X;X;X;X;X;X",
";X;X;X;X;X;X;XX.r > > O c.~.~.~.~.~.~.~.~.~.w.o.T ;X;X;X;X;X;X;X",
";X;X;X;X;X;X;X..t > & o ,   q G 7.W.(. XU.v.B.+.R ;X;X;X;X;X;X;X",
";X;X;X;X;X;X;X;.u 1 7 4 3 0 5 2 6 6 8 < 9 e 1.) E ;X;X;X;X;X;X;X"
};
