/* XPM */
static char *result[] = {
/* columns rows colors chars-per-pixel */
"32 32 15 1 ",
"  c black",
". c #7B797B",
"X c #9C4900",
"o c #CE6939",
"O c #FFA231",
"+ c #FFCB08",
"@ c #FFF300",
"# c #2971FF",
"$ c #29AAFF",
"% c #63D3FF",
"& c #A5A2A5",
"* c #BDBABD",
"= c #F8A0AB",
"- c #DEDBDE",
"; c #FFFBFF",
/* pixels */
"================================",
"=============XXXX===============",
"============XoO+OX==============",
"============X+@@@OX=============",
"===========XO@@@@+X=============",
"===========X+@@;@@X=============",
"===========X+;;o;+X=============",
"==========XO@@;;OOX=============",
"==========XOOO+@@oX=============",
"==========XOOOO++X==============",
"==========XoOOO+OX==============",
"===========XXO++o.==============",
"============X@-;;-.=============",
"===========.*O**-&&.============",
"===========.-;;;&-;;.===========",
"===========.;;;;&;;;*.==========",
"==========.*;;;;&-;**X==========",
"=========.*;;;;;-&*O@+X=========",
"=========.*;;;;;;;o+@@+X========",
"=========.-;;;;;;;*oO@@X========",
"=========.*--;;;;-oO@@+X========",
"=========#$*******o+@+X=========",
"=========##$%%%%%%o@+OX=========",
"=========#$$$$$#$$oOoX==========",
"========#$$$$$#$%%ooX===========",
"========#$$$$$#$%%%$#===========",
"========#$$$##=#%%%$$#==========",
"========#$$$$#=#$$$$$#==========",
"=========#$$# ==#$$$  ==========",
"========.     ==.    .==========",
"========     ===    .===========",
"================================"
};
