/* XPM */
static char *result[] = {
/* columns rows colors chars-per-pixel */
"32 32 144 2 ",
"   c #260E00",
".  c #260F03",
"X  c #250F05",
"o  c #3A1F0F",
"O  c #3E2314",
"+  c #3C2820",
"@  c #54381E",
"#  c #44342F",
"$  c #4C362E",
"%  c #533C30",
"&  c #5D4126",
"*  c #6C4D35",
"=  c #6D503A",
"-  c #6D523D",
";  c #72573D",
":  c #5C4944",
">  c #5F4E47",
",  c #775C4B",
"<  c #746155",
"1  c #82644E",
"2  c #8A674A",
"3  c #8A694D",
"4  c #916D4F",
"5  c #826852",
"6  c #876C50",
"7  c #896D58",
"8  c #8B7155",
"9  c #937E69",
"0  c #937F6B",
"q  c #A6845E",
"w  c #B49770",
"e  c #BC9E75",
"r  c #BBA078",
"t  c #CDA978",
"y  c #D1AE7E",
"u  c #D1AF7F",
"i  c #958780",
"p  c #AB988B",
"a  c #B19E90",
"s  c #BBA183",
"d  c #B9A594",
"f  c #BCAA9C",
"g  c #D2AF80",
"h  c #D2B183",
"j  c #D5B588",
"k  c #D6B588",
"l  c #D8B98D",
"z  c #F8A0AB",
"x  c #DEC296",
"c  c #DEC297",
"v  c #DFC399",
"b  c #E1C297",
"n  c #E0C59A",
"m  c #E1C89E",
"M  c #E1C8A0",
"N  c #E4CCA2",
"B  c #E6CDA2",
"V  c #E3CBA4",
"C  c #E5CDA4",
"Z  c #E7CFA6",
"A  c #E1CCA9",
"S  c #E8D0A7",
"D  c #E9D2A9",
"F  c #ECD6AF",
"G  c #E4D1B0",
"H  c #ECD6B1",
"J  c #EDD8B1",
"K  c #EDD8B4",
"L  c #EEDAB6",
"P  c #EAD9B8",
"I  c #EEDBBA",
"U  c #EFDCB8",
"Y  c #EFDDBE",
"T  c #F2DBB6",
"R  c #F1DEBB",
"E  c #F6DDBB",
"W  c #F2DFBC",
"Q  c #F7DEBC",
"!  c #F2E0BD",
"~  c #F2E1BF",
"^  c #D7D2CF",
"/  c #F1E0C0",
"(  c #F2E3C6",
")  c #F5E5C5",
"_  c #F5E5C6",
"`  c #F6E6C7",
"'  c #F5E6C8",
"]  c #F6E7C8",
"[  c #F6E6CC",
"{  c #F7E8C9",
"}  c #F7E8CB",
"|  c #F8E8CA",
" . c #FAE8CB",
".. c #F8E9CC",
"X. c #F8EACC",
"o. c #FAE9CE",
"O. c #F8EBCE",
"+. c #F9EBCF",
"@. c #FCEBCF",
"#. c #F9ECCF",
"$. c #E4E1DF",
"%. c #FBEBD3",
"&. c #FAEDD1",
"*. c #FAEDD2",
"=. c #FAEDD3",
"-. c #FBEBD4",
";. c #FAEED4",
":. c #FAEED5",
">. c #FAEFD6",
",. c #FCEDD9",
"<. c #FBF1DC",
"1. c #FBF2DE",
"2. c #FCF1DD",
"3. c #ECE6E2",
"4. c #F2EEEB",
"5. c #F1EFEE",
"6. c #FCF3E0",
"7. c #FCF4E2",
"8. c OldLace",
"9. c #FDF6E7",
"0. c #F1F0EF",
"q. c #FAF3E8",
"w. c #FCF4E8",
"e. c #FCF5E8",
"r. c #FDF6E8",
"t. c #FAF6EE",
"y. c #FDF7EC",
"u. c #FEF8EC",
"i. c #FDF9EF",
"p. c #FEF8EE",
"a. c #FEF9EE",
"s. c #FEF9EF",
"d. c #FDF9F1",
"f. c #FEFAF0",
"g. c #FDFAF2",
"h. c #FEFAF2",
"j. c #FFFBF3",
"k. c #FCF9F4",
"l. c #FCFAF6",
"z. c #FFFDF9",
"x. c #FEFCFA",
"c. c #FFFEFC",
"v. c #FFFEFD",
"b. c white",
/* pixels */
"z z z z z z z z z z z z z z z z z z z z z z z z z z z z z z z z ",
"z z z z z z z z z z z z z z z z z z z z z z z z z z z z z z z z ",
"z z z z z z z z z z z z z z z z z z z z z z z z z z z z z z z z ",
"z z z z z z z z z z z z z z z z z z z z z z z z z z z z z z z z ",
"z z z z z z z z z z z z z z z z z z z z z z z z z z z z z z z z ",
"z z z z z z z z z z z z z z z z z z z z z z z z z z z z z z z z ",
"z z z z z z z z z z z z - * * * * * * = z z z z z z z z z z z z ",
"z z z z z z z z z z 4 q m &.&.&.&.&.&.N q 4 z z z z z z z z z z ",
"z z z z z z z z 6 r ! &.@.U V V V V L @.&.~ s ; z z z z z z z z ",
"z z z z z z z @ A +.X.n k u t t t t y k j Z #.A & z z z z z z z ",
"z z z z z z 3 F O.S g c E 1.1.1.1.1.1.Q c g D } J 2 z z z z z z ",
"z z z z z : w O.C b o.;.*.&.&.&.&.&.&.&.;.o.B v ' e : z z z z z ",
"z z z z z 5 G _ M | =.&.<.u.u.u.u.u.u.2.&.=.] M / P 5 z z z z z ",
"z z z z z 8 { ` ! *.8.j.j.j.j.j.j.j.j.j.j.9.*.! ) ..8 z z z z z ",
"z z z z z 9 &.x :.9.j.j.j.j.j.j.j.j.j.j.j.j.r.:.n &.9 z z z z z ",
"z z z z z 9 &.h 6.h.j.j.j.j.j.j.j.j.j.j.j.j.h.6.j &.9 z z z z z ",
"z z z z z 0 >.h 7.j.j.j.j.j.j.j.j.j.j.j.j.j.j.7.l >.0 z z z z z ",
"z z z z z i b.x 7.j.j.j.j.j.j.j.j.j.j.j.j.j.j.7.T b.i z z z z z ",
"z z z z z i b.q.,.j.j.j.j.j.j.j.j.j.j.j.j.j.s. .w.b.i z z z z z ",
"z z z z z $ ^ k.W u.j.j.j.j.j.j.j.j.j.j.j.j.a.R t.$.+ z z z z z ",
"z z z z z : p x.[ e.j.j.j.j.j.j.j.j.j.j.j.j.y.( l.a # z z z z z ",
"z z z z z z O b.l.Y j.j.j.j.j.j.j.j.j.j.j.j.I l.b.o z z z z z z ",
"z z z z z z z 1 5.v.H %.p.f.f.f.f.f.f.s.-.K b.0.7 z z z z z z z ",
"z z z z z z z z < d z.c.g.i.i.i.i.i.i.d.b.b.f > z z z z z z z z ",
"z z z z z z z z z z % , 3.b.b.b.b.b.b.4., % z z z z z z z z z z ",
"z z z z z z z z z z z z X             . z z z z z z z z z z z z ",
"z z z z z z z z z z z z z z z z z z z z z z z z z z z z z z z z ",
"z z z z z z z z z z z z z z z z z z z z z z z z z z z z z z z z ",
"z z z z z z z z z z z z z z z z z z z z z z z z z z z z z z z z ",
"z z z z z z z z z z z z z z z z z z z z z z z z z z z z z z z z ",
"z z z z z z z z z z z z z z z z z z z z z z z z z z z z z z z z ",
"z z z z z z z z z z z z z z z z z z z z z z z z z z z z z z z z "
};
