/* XPM */
static char *result[] = {
/* columns rows colors chars-per-pixel */
"32 32 62 1 ",
"  c black",
". c #7B797B",
"X c #9C4900",
"o c #CE6939",
"O c #FFA231",
"+ c #FFCB08",
"@ c #FFF300",
"# c #4B648D",
"$ c #4D6291",
"% c #476EBA",
"& c #4A6FBF",
"* c #4571BE",
"= c #4570BF",
"- c #4674BD",
"; c #4C72BB",
": c #4B70BF",
"> c #4A74BF",
", c #5F7BBD",
"< c #2971FF",
"1 c #4B70C0",
"2 c #4B70C1",
"3 c #4971C3",
"4 c #4C73C1",
"5 c #4C71C2",
"6 c #4E76C5",
"7 c #4F76C5",
"8 c #587DC7",
"9 c #6280BD",
"0 c #29AAFF",
"q c #658DD3",
"w c #6B8ED6",
"e c #668AD8",
"r c #6A8FDA",
"t c #688DDD",
"y c #688EDE",
"u c #688EDF",
"i c #6C8EDD",
"p c #6690DF",
"a c #6694DF",
"s c #6D92DB",
"d c #6394E0",
"f c #6795E0",
"g c #6D92E0",
"h c #6C93E2",
"j c #6C93E3",
"k c #6D93E3",
"l c #6D95E1",
"z c #6D94E2",
"x c #6D94E3",
"c c #6893E4",
"v c #6D93E4",
"b c #6895E4",
"n c #7196E1",
"m c #7097E1",
"M c #7298E9",
"N c #729CF0",
"B c #63D3FF",
"V c #A5A2A5",
"C c #BDBABD",
"Z c #F8A0AB",
"A c #DEDBDE",
"S c #FFFBFF",
/* pixels */
"ZZZZZZZ-2:::::XXXX:::::1*ZZZZZZZ",
"ZZZZZZZ>31111XO++OX1115&%ZZZZZZZ",
"ZZZZZZZ>yxxlXO+@@+OXjbx6=ZZZZZZZ",
"ZZZZZZZ>yxxwXO@@@@OXrpx6=ZZZZZZZ",
"ZZZZZZZ>yvN9XO@++@OX#ax6=ZZZZZZZ",
"ZZZZZZZ>yvN,X+oSSo+X$fx6=ZZZZZZZ",
"ZZZZZZZ>yvN,X+S@+S+X$fx6=ZZZZZZZ",
"ZZZZZZZ>yvN,X+O++O+X$fx6=ZZZZZZZ",
"ZZZZZZZ>yvN,XOOOOOOX$fx6=ZZZZZZZ",
"ZZZZZZZ>yvN,oXOOOOXo$fx6=ZZZZZZZ",
"ZZZZZZZ>yvN,.XoOOoX.$fx6=ZZZZZZZ",
"ZZZZZZZ>yvN,.AS@@SA.$fx6=ZZZZZZZ",
"ZZZZZZZ>yvN..CA++ACV.fx6=ZZZZZZZ",
"ZZZZZZZ>yv.AVSSAASASA.x6=ZZZZZZZ",
"ZZZZZZZ>q.ACASSSSSCSSA.6=ZZZZZZZ",
"ZZZZZZZ>tXAVASSSSSAC++OX=ZZZZZZZ",
"ZZZZZZZ>Xo.CSSSSSSSoO@+X=ZZZZZZZ",
"ZZZZZZZ>XO.CSSSSSSSAoO+X=ZZZZZZZ",
"ZZZZZZZ>XO.ASSSSSSSoO+OX=ZZZZZZZ",
"ZZZZZZZ>XO.CASSSSAAX+@OX=ZZZZZZZ",
"ZZZZZZZ>XO<CCCCCCCCXO++X=ZZZZZZZ",
"ZZZZZZZ>yX<0BBBBBBBBXOX6=ZZZZZZZ",
"ZZZZZZZ>yh<0BB000BBB<Xx6=ZZZZZZZ",
"ZZZZZZZ>yv<0BBB0<BB0<gx6=ZZZZZZZ",
"ZZZZZZZ>yv<0BBB0<000<gx6=ZZZZZZZ",
"ZZZZZZZ>yvN<BBB0<000<gx6=ZZZZZZZ",
"ZZZZZZZ>yvN<BBB0<000<gx6=ZZZZZZZ",
"ZZZZZZZ>yzM<BBB0<00<edx6=ZZZZZZZ",
"ZZZZZZZ>ykz<BBB0<<< cix6=ZZZZZZZ",
"ZZZZZZZ>yxx<    <  .xxx6=ZZZZZZZ",
"ZZZZZZZ>uxx      xxxxxx7=ZZZZZZZ",
"ZZZZZZZ4smm.    .mmmmmn8;ZZZZZZZ"
};
