/* XPM */
static char *result[] = {
/* columns rows colors chars-per-pixel */
"32 32 104 2 ",
"   c black",
".  c #3A1F0F",
"X  c #3E2314",
"o  c #3C2820",
"O  c #54381E",
"+  c #44342F",
"@  c #4C362E",
"#  c #533C30",
"$  c #5D4126",
"%  c #72573D",
"&  c #5C4944",
"*  c #5F4E47",
"=  c #746155",
"-  c #7B797B",
";  c #9C4900",
":  c #CE6939",
">  c #82644E",
",  c #8A674A",
"<  c #8A694D",
"1  c #916D4F",
"2  c #826852",
"3  c #876C50",
"4  c #896D58",
"5  c #8B7155",
"6  c #937E69",
"7  c #937F6B",
"8  c #FFA231",
"9  c #FFCB08",
"0  c #FFF300",
"q  c #A6845E",
"w  c #B49770",
"e  c #BC9E75",
"r  c #BBA078",
"t  c #2971FF",
"y  c #29AAFF",
"u  c #63D3FF",
"i  c #958780",
"p  c #AB988B",
"a  c #B19E90",
"s  c #BBA183",
"d  c #B9A594",
"f  c #BCAA9C",
"g  c #A5A2A5",
"h  c #BDBABD",
"j  c #D2AF80",
"k  c #D2B183",
"l  c #D5B588",
"z  c #D8B98D",
"x  c #F8A0AB",
"c  c #DEC296",
"v  c #DEC297",
"b  c #DFC399",
"n  c #E1C297",
"m  c #E0C59A",
"M  c #E1C8A0",
"N  c #E6CDA2",
"B  c #E5CDA4",
"V  c #E7CFA6",
"C  c #E1CCA9",
"Z  c #E8D0A7",
"A  c #E9D2A9",
"S  c #ECD6AF",
"D  c #E4D1B0",
"F  c #EDD8B1",
"G  c #EAD9B8",
"H  c #F2DBB6",
"J  c #F2E0BD",
"K  c #F2E1BF",
"L  c #D7D2CF",
"P  c #DEDBDE",
"I  c #F1E0C0",
"U  c #F5E5C5",
"Y  c #F5E5C6",
"T  c #F6E6C7",
"R  c #F5E6C8",
"E  c #F6E7C8",
"W  c #F7E8C9",
"Q  c #F7E8CB",
"!  c #F8E8CA",
"~  c #F8E9CC",
"^  c #F8EACC",
"/  c #FAE9CE",
"(  c #F8EBCE",
")  c #F9EBCF",
"_  c #F9ECCF",
"`  c #E4E1DF",
"'  c #FAEDD1",
"]  c #FAEDD2",
"[  c #FAEDD3",
"{  c #FAEED4",
"}  c #FAEED5",
"|  c #FAEFD6",
" . c #F1EFEE",
".. c #FCF3E0",
"X. c #F1F0EF",
"o. c #FAF3E8",
"O. c #FCF4E8",
"+. c #FAF6EE",
"@. c #FCF9F4",
"#. c #FCFAF6",
"$. c #FEFCFA",
"%. c #FFFBFF",
"&. c #FFFEFD",
"*. c white",
/* pixels */
"x x x x x x x x x x x x x x ; ; ; ; x x x x x x x x x x x x x x ",
"x x x x x x x x x x x x x ; 8 9 9 8 ; x x x x x x x x x x x x x ",
"x x x x x x x x x x x x ; 8 9 0 0 9 8 ; x x x x x x x x x x x x ",
"x x x x x x x x x x x x ; 8 0 0 0 0 8 ; x x x x x x x x x x x x ",
"x x x x x x x x x x x x ; 8 0 9 9 0 8 ; x x x x x x x x x x x x ",
"x x x x x x x x x x x x ; 9 : %.%.: 9 ; x x x x x x x x x x x x ",
"x x x x x x x x x x x x ; 9 %.0 9 %.9 ; x x x x x x x x x x x x ",
"x x x x x x x x x x 1 q ; 9 8 9 9 8 9 ; q 1 x x x x x x x x x x ",
"x x x x x x x x 3 r J ' ; 8 8 8 8 8 8 ; ' K s % x x x x x x x x ",
"x x x x x x x O C ) ^ m : ; 8 8 8 8 ; : l V _ C $ x x x x x x x ",
"x x x x x x < S ( Z j v - ; : 8 8 : ; - v j A Q F , x x x x x x ",
"x x x x x & w ( B n / { - P %.0 0 %.P - { / N b R e & x x x x x ",
"x x x x x 2 D Y M ! [ - - h P 9 9 P h g - [ E M I G 2 x x x x x ",
"x x x x x 5 W T J ] - P g %.%.P P %.P %.P - ] J U ~ 5 x x x x x ",
"x x x x x 6 ' c } - P h P %.%.%.%.%.h %.%.P - } m ' 6 x x x x x ",
"x x x x x 6 ' k ..; P g P %.%.%.%.%.P h 9 9 8 ; l ' 6 x x x x x ",
"x x x x x 7 | k ; : - h %.%.%.%.%.%.%.: 8 0 9 ; z | 7 x x x x x ",
"x x x x x i *.c ; 8 - h %.%.%.%.%.%.%.P : 8 9 ; H *.i x x x x x ",
"x x x x x i *.o.; 8 - P %.%.%.%.%.%.%.: 8 9 8 ; O.*.i x x x x x ",
"x x x x x @ L @.; 8 - h P %.%.%.%.P P ; 9 0 8 ; +.` o x x x x x ",
"x x x x x & p $.; 8 t h h h h h h h h ; 8 9 9 ; #.a + x x x x x ",
"x x x x x x X *.#.; t y u u u u u u u u ; 8 ; #.*.. x x x x x x ",
"x x x x x x x >  .&.t y u u y y y u u u t ; *.X.4 x x x x x x x ",
"x x x x x x x x = d t y u u u y t u u y t *.f * x x x x x x x x ",
"x x x x x x x x x x t y u u u y t y y y t # x x x x x x x x x x ",
"x x x x x x x x x x x t u u u y t y y y t x x x x x x x x x x x ",
"x x x x x x x x x x x t u u u y t y y y t x x x x x x x x x x x ",
"x x x x x x x x x x x t u u u y t y y t x x x x x x x x x x x x ",
"x x x x x x x x x x x t u u u y t t t   x x x x x x x x x x x x ",
"x x x x x x x x x x x t         t     - x x x x x x x x x x x x ",
"x x x x x x x x x x x             x x x x x x x x x x x x x x x ",
"x x x x x x x x x x x -         - x x x x x x x x x x x x x x x "
};
