/* XPM */
static char *_03247c6b0a14608ddb68ca075a3ad47hYffnw3xrlShEr15[] = {
/* columns rows colors chars-per-pixel */
"32 32 93 2 ",
"   c black",
".  c #3A1F0F",
"X  c #3E2314",
"o  c #3C2820",
"O  c #54381E",
"+  c #44342F",
"@  c #4C362E",
"#  c #533C30",
"$  c #5D4126",
"%  c #72573D",
"&  c #5C4944",
"*  c #5F4E47",
"=  c #746155",
"-  c #7B797B",
";  c #9C4900",
":  c #CE6939",
">  c #82644E",
",  c #8A674A",
"<  c #8A694D",
"1  c #916D4F",
"2  c #826852",
"3  c #876C50",
"4  c #896D58",
"5  c #8B7155",
"6  c #937E69",
"7  c #FFA231",
"8  c #FFCB08",
"9  c #FFF300",
"0  c #A6845E",
"q  c #B49770",
"w  c #BC9E75",
"e  c #BBA078",
"r  c #2971FF",
"t  c #29AAFF",
"y  c #63D3FF",
"u  c #958780",
"i  c #AB988B",
"p  c #B19E90",
"a  c #BBA183",
"s  c #B9A594",
"d  c #BCAA9C",
"f  c #A5A2A5",
"g  c #BDBABD",
"h  c #D2AF80",
"j  c #D2B183",
"k  c #D5B588",
"l  c #D8B98D",
"z  c #F8A0AB",
"x  c #DEC297",
"c  c #DFC399",
"v  c #E1C297",
"b  c #E0C59A",
"n  c #E1C8A0",
"m  c #E6CDA2",
"M  c #E5CDA4",
"N  c #E1CCA9",
"B  c #E8D0A7",
"V  c #E9D2A9",
"C  c #ECD6AF",
"Z  c #E4D1B0",
"A  c #EDD8B1",
"S  c #EAD9B8",
"D  c #EEDBBA",
"F  c #EFDDBE",
"G  c #F2DBB6",
"H  c #F1DEBB",
"J  c #F2DFBC",
"K  c #F2E0BD",
"L  c #D7D2CF",
"P  c #DEDBDE",
"I  c #F1E0C0",
"U  c #F2E3C6",
"Y  c #F6E6C7",
"T  c #F5E6C8",
"R  c #F6E6CC",
"E  c #F7E8C9",
"W  c #F8E8CA",
"Q  c #F9EBCF",
"!  c #F9ECCF",
"~  c #E4E1DF",
"^  c #FAEDD1",
"/  c #FAEED4",
"(  c #F1EFEE",
")  c #FCF3E0",
"_  c #F1F0EF",
"`  c #FAF3E8",
"'  c #FCF5E8",
"]  c #FAF6EE",
"[  c #FDF7EC",
"{  c #FCF9F4",
"}  c #FEFCFA",
"|  c #FFFBFF",
" . c white",
/* pixels */
"z z z z z z z z z z z z z z ; ; ; ; z z z z z z z z z z z z z z ",
"z z z z z z z z z z z z z ; 7 8 8 7 ; z z z z z z z z z z z z z ",
"z z z z z z z z z z z z ; 7 8 9 9 8 7 ; z z z z z z z z z z z z ",
"z z z z z z z z z z z z ; 7 9 9 9 9 7 ; z z z z z z z z z z z z ",
"z z z z z z z z z z z z ; 7 9 8 8 9 7 ; z z z z z z z z z z z z ",
"z z z z z z z z z z z z ; 8 : | | : 8 ; z z z z z z z z z z z z ",
"z z z z z z z z z z z z ; 8 | 9 8 | 8 ; z z z z z z z z z z z z ",
"z z z z z z z z z z 1 0 ; 8 7 8 8 7 8 ; 0 1 z z z z z z z z z z ",
"z z z z z z z z 3 e K ^ ; 7 7 7 7 7 7 ; ^ K a % z z z z z z z z ",
"z z z z z z z O N Q Q b : ; 7 7 7 7 ; : k M ! N $ z z z z z z z ",
"z z z z z z < C Q B h x - ; : 7 7 : ; - x h V E A , z z z z z z ",
"z z z z z & q Q M v Q / - P | 9 9 | P - / Q m c T w & z z z z z ",
"z z z z z 2 Z Y n W ^ - - g P 8 8 P g - - ^ T n I S 2 z z z z z ",
"z z z z z 5 E Y K ^ - g P | | P P | | P g - ^ K Y Q 5 z z z z z ",
"z z z z z 6 ^ x / - g P g | | | | | | g P g - / b ^ 6 z z z z z ",
"z z z z z 6 ^ j ) ; 8 f P | | P P | | P f 8 ; ) k ^ 6 z z z z z ",
"z z z z z 6 / j ; 7 9 : g g g 7 : P P g : 9 7 ; l / 6 z z z z z ",
"z z z z z u  .x ; 8 8 7 : : : | 7 : : : 7 8 8 ; G  .u z z z z z ",
"z z z z z u  .` ; 7 9 9 8 7 8 7 | 8 7 8 9 9 7 ; '  .u z z z z z ",
"z z z z z @ L { J ; : 7 8 8 9 | 7 9 8 8 7 : ; H ] ~ o z z z z z ",
"z z z z z & i } R ' ; : : : : ; ; : : : ; ; [ U { p + z z z z z ",
"z z z z z z X  .{ F r t y y y y y y y y t r D {  .. z z z z z z ",
"z z z z z z z > (  .r t y t t t t t t y t r  ._ 4 z z z z z z z ",
"z z z z z z z z = s } r y y t r r t y y r  .d * z z z z z z z z ",
"z z z z z z z z z z # r t y y r r y y t r # z z z z z z z z z z ",
"z z z z z z z z z z z r t y y r r y y t r z z z z z z z z z z z ",
"z z z z z z z z z z z r t y y r r y y t r z z z z z z z z z z z ",
"z z z z z z z z z z z r t y y r r y y t r z z z z z z z z z z z ",
"z z z z z z z z z z z r t y y r r y y t r z z z z z z z z z z z ",
"z z z z z z z z z z z r r t t r r t t r r z z z z z z z z z z z ",
"z z z z z z z z z z -                     - z z z z z z z z z z ",
"z z z z z z z z z z           - -           z z z z z z z z z z "
};
