/* XPM */
static char *_7a86daab0eb46f1eaf08543cecf3edbE2YOKRYXLKmeH2Mf[] = {
/* columns rows colors chars-per-pixel */
"32 32 47 1 ",
"  c black",
". c #7B797B",
"X c #9C4900",
"o c #CE6939",
"O c #FFA231",
"+ c #FFCB08",
"@ c #FFF300",
"# c #4B648D",
"$ c #4D6291",
"% c #476EBA",
"& c #4A6FBF",
"* c #4570BF",
"= c #4674BD",
"- c #4C72BB",
"; c #4B70BF",
": c #4A74BF",
"> c #5F7BBD",
", c #2971FF",
"< c #4B70C1",
"1 c #4C73C1",
"2 c #4E76C5",
"3 c #587DC7",
"4 c #6280BD",
"5 c #29AAFF",
"6 c #658DD3",
"7 c #6B8ED6",
"8 c #6A8FDA",
"9 c #688EDE",
"0 c #6C8EDD",
"q c #6690DF",
"w c #6694DF",
"e c #6D92DB",
"r c #6394E0",
"t c #6795E0",
"y c #6D93E3",
"u c #6D94E3",
"i c #6D93E4",
"p c #6895E4",
"a c #7097E1",
"s c #7298E9",
"d c #729CF0",
"f c #63D3FF",
"g c #A5A2A5",
"h c #BDBABD",
"j c #F8A0AB",
"k c #DEDBDE",
"l c #FFFBFF",
/* pixels */
"jjjjjjj=<;;;;;XXXX;;;;;<*jjjjjjj",
"jjjjjjj:<<<<<XO++OX<<<1&%jjjjjjj",
"jjjjjjj:9uuuXO+@@+OXypu2*jjjjjjj",
"jjjjjjj:9uu7XO@@@@OX8qu2*jjjjjjj",
"jjjjjjj:9id4XO@++@OX#wu2*jjjjjjj",
"jjjjjjj:9id>X+ollo+X$tu2*jjjjjjj",
"jjjjjjj:9id>X+l@+l+X$tu2*jjjjjjj",
"jjjjjjj:9id>X+O++O+X$tu2*jjjjjjj",
"jjjjjjj:9id>XOOOOOOX$tu2*jjjjjjj",
"jjjjjjj:9id>oXOOOOXo$tu2*jjjjjjj",
"jjjjjjj:9id>.XoOOoX.$tu2*jjjjjjj",
"jjjjjjj:9id>.kl@@lk.$tu2*jjjjjjj",
"jjjjjjj:9id..hk++kh..tu2*jjjjjjj",
"jjjjjjj:9i.hkllkkllkh.u2*jjjjjjj",
"jjjjjjj:6.hkhllllllhkh.2*jjjjjjj",
"jjjjjjj:9X+gkllkkllkg+X2*jjjjjjj",
"jjjjjjj:XO@ohhhOokkho@OX*jjjjjjj",
"jjjjjjj:X++OooolOoooO++X*jjjjjjj",
"jjjjjjj:XO@@+O+Ol+O+@@OX*jjjjjjj",
"jjjjjjj:9XoO++@lO@++OoX2*jjjjjjj",
"jjjjjjj:9yXooooXXoooXXu2*jjjjjjj",
"jjjjjjj:9u,5ffffffff5,u2*jjjjjjj",
"jjjjjjj:9y,5f555555f5,u2*jjjjjjj",
"jjjjjjj:9id,ff5,,5ff,yu2*jjjjjjj",
"jjjjjjj:9id,5ff,,ff5,yu2*jjjjjjj",
"jjjjjjj:9id,5ff,,ff5,yu2*jjjjjjj",
"jjjjjjj:9id,5ff,,ff5,yu2*jjjjjjj",
"jjjjjjj:9us,5ff,,ff5,ru2*jjjjjjj",
"jjjjjjj:9yu,5ff,,ff5,0u2*jjjjjjj",
"jjjjjjj:9uu,,55,,55,,uu2*jjjjjjj",
"jjjjjjj:9u.          .u2*jjjjjjj",
"jjjjjjj1ea     ..     a3-jjjjjjj"
};
