/* XPM */
static char *_a6cb2457f1e4aa49e6988b74084d40cgyikQGy6AGOQyZ0B[] = {
/* columns rows colors chars-per-pixel */
"32 32 105 2 ",
"   c black",
".  c #3A1F0F",
"X  c #3E2314",
"o  c #3C2820",
"O  c #54381E",
"+  c #44342F",
"@  c #4C362E",
"#  c #533C30",
"$  c #5D4126",
"%  c #72573D",
"&  c #747E3A",
"*  c #5C4944",
"=  c #5F4E47",
"-  c #746155",
";  c #7B797B",
":  c #EE1738",
">  c #9C4900",
",  c #CE6939",
"<  c #82644E",
"1  c #8A674A",
"2  c #8A694D",
"3  c #916D4F",
"4  c #826852",
"5  c #876C50",
"6  c #896D58",
"7  c #8B7155",
"8  c #937E69",
"9  c #088752",
"0  c #088F57",
"q  c #FFA231",
"w  c #FFCB08",
"e  c #FFF300",
"r  c #A6845E",
"t  c #B49770",
"y  c #BC9E75",
"u  c #BBA078",
"i  c #2971FF",
"p  c #D33083",
"a  c #D23085",
"s  c #C64B86",
"d  c #C84C87",
"f  c #EC599F",
"g  c #EC5AA0",
"h  c #29AAFF",
"j  c #63D3FF",
"k  c #958780",
"l  c #AB988B",
"z  c #B19E90",
"x  c #BBA183",
"c  c #B9A594",
"v  c #BCAA9C",
"b  c #A5A2A5",
"n  c #BDBABD",
"m  c #D2AF80",
"M  c #D2B183",
"N  c #D5B588",
"B  c #D8B98D",
"V  c #EE87B6",
"C  c #EE88B6",
"Z  c #F8A0AB",
"A  c #DEC297",
"S  c #DFC399",
"D  c #E1C297",
"F  c #E0C59A",
"G  c #E1C8A0",
"H  c #E6CDA2",
"J  c #E5CDA4",
"K  c #E1CCA9",
"L  c #E8D0A7",
"P  c #E9D2A9",
"I  c #ECD6AF",
"U  c #E4D1B0",
"Y  c #EDD8B1",
"T  c #EAD9B8",
"R  c #EEDBBA",
"E  c #EFDDBE",
"W  c #F2DBB6",
"Q  c #F1DEBB",
"!  c #F2DFBC",
"~  c #F2E0BD",
"^  c #D7D2CF",
"/  c #DEDBDE",
"(  c #F1E0C0",
")  c #F2E3C6",
"_  c #F6E6C7",
"`  c #F5E6C8",
"'  c #F6E6CC",
"]  c #F7E8C9",
"[  c #F8E8CA",
"{  c #F9EBCF",
"}  c #F9ECCF",
"|  c #E4E1DF",
" . c #FAEDD1",
".. c #FAEED4",
"X. c #F1EFEE",
"o. c #FCF3E0",
"O. c #F1F0EF",
"+. c #FAF3E8",
"@. c #FCF5E8",
"#. c #FAF6EE",
"$. c #FDF7EC",
"%. c #FCF9F4",
"&. c #FEFCFA",
"*. c #FFFBFF",
"=. c white",
/* pixels */
"Z Z Z Z Z Z Z Z Z Z Z Z Z Z > > > > Z Z Z Z Z Z Z Z Z Z Z Z Z Z ",
"Z Z Z Z Z Z Z Z Z Z Z Z Z > q w w q > Z Z Z Z Z Z Z Z Z Z Z Z Z ",
"Z Z Z Z Z Z Z Z Z Z Z Z > q w e e w q > Z Z Z Z Z Z Z Z Z Z Z Z ",
"Z Z Z Z Z Z Z Z Z Z Z Z > q e e e e q > Z Z Z Z Z Z Z Z Z Z Z Z ",
"Z Z Z Z Z Z Z Z Z Z Z Z > q e w w e q > Z Z Z Z Z Z Z Z Z Z Z Z ",
"Z Z Z Z Z Z Z Z Z Z Z Z > w , *.*., w > Z Z Z Z Z Z Z Z Z Z Z Z ",
"Z Z Z Z Z Z Z Z Z Z Z Z > w *.e w *.w > Z Z Z Z Z Z Z Z Z Z Z Z ",
"Z Z Z Z Z Z Z Z Z Z 3 r > w q w w q w > r 3 Z Z Z Z Z Z Z Z Z Z ",
"Z Z Z Z Z Z Z Z 5 u ~  .> q q q q q q >  .~ x % Z Z Z Z Z Z Z Z ",
"Z Z Z Z Z Z Z O K { { F , > q q q q > , N J } K $ Z Z Z Z Z Z Z ",
"Z Z Z Z Z Z 2 I { L m A ; > , q q , > ; A m P ] Y 1 Z Z Z Z Z Z ",
"Z Z Z Z Z * t { J D { ..; / *.e e *./ ; ..{ H S ` y * Z Z Z Z Z ",
"Z Z Z Z Z 4 U _ G [  .; ; n / w w / n ; ;  .` G ( T 4 Z Z Z Z Z ",
"Z Z Z Z Z 7 ] _ ~  .; n / *.*./ / *.*./ n ;  .~ _ { 7 Z Z Z Z Z ",
"Z Z Z Z Z 8  .A ..; n / n *.*.*.*.*.*.n / n ; ..F  .8 Z Z Z Z Z ",
"Z Z Z Z Z 8  .M o.> w b / *.V C : p *./ b w > o.N  .8 Z Z Z Z Z ",
"Z Z Z Z Z 8 ..M > q e , n C & g d g p n , e q > B ..8 Z Z Z Z Z ",
"Z Z Z Z Z k =.A > w w q , g a *.q 0 f , q w w > W =.k Z Z Z Z Z ",
"Z Z Z Z Z k =.+.> q e e w g f q *.f s w e e q > @.=.k Z Z Z Z Z ",
"Z Z Z Z Z @ ^ %.! > , q w p 9 g f f p w q , > Q #.| o Z Z Z Z Z ",
"Z Z Z Z Z * l &.' @.> , , , p f g p , , > > $.) %.z + Z Z Z Z Z ",
"Z Z Z Z Z Z X =.%.E i h j j j j j j j j h i R %.=.. Z Z Z Z Z Z ",
"Z Z Z Z Z Z Z < X.=.i h j h h h h h h j h i =.O.6 Z Z Z Z Z Z Z ",
"Z Z Z Z Z Z Z Z - c &.i j j h i i h j j i =.v = Z Z Z Z Z Z Z Z ",
"Z Z Z Z Z Z Z Z Z Z # i h j j i i j j h i # Z Z Z Z Z Z Z Z Z Z ",
"Z Z Z Z Z Z Z Z Z Z Z i h j j i i j j h i Z Z Z Z Z Z Z Z Z Z Z ",
"Z Z Z Z Z Z Z Z Z Z Z i h j j i i j j h i Z Z Z Z Z Z Z Z Z Z Z ",
"Z Z Z Z Z Z Z Z Z Z Z i h j j i i j j h i Z Z Z Z Z Z Z Z Z Z Z ",
"Z Z Z Z Z Z Z Z Z Z Z i h j j i i j j h i Z Z Z Z Z Z Z Z Z Z Z ",
"Z Z Z Z Z Z Z Z Z Z Z i i h h i i h h i i Z Z Z Z Z Z Z Z Z Z Z ",
"Z Z Z Z Z Z Z Z Z Z ;                     ; Z Z Z Z Z Z Z Z Z Z ",
"Z Z Z Z Z Z Z Z Z Z           ; ;           Z Z Z Z Z Z Z Z Z Z "
};
