/* XPM */
static char *result[] = {
/* columns rows colors chars-per-pixel */
"32 32 15 1 ",
"  c black",
". c #7B797B",
"X c #9C4900",
"o c #CE6939",
"O c #FFA231",
"+ c #FFCB08",
"@ c #FFF300",
"# c #2971FF",
"$ c #29AAFF",
"% c #63D3FF",
"& c #A5A2A5",
"* c #BDBABD",
"= c #F8A0AB",
"- c #DEDBDE",
"; c #FFFBFF",
/* pixels */
"================================",
"===============XXXX=============",
"==============XO+OoX============",
"=============XO@@@+X============",
"=============X+@@@@OX===========",
"=============X@@;@@+X===========",
"=============X+;o;;+X===========",
"=============XOO;;@@OX==========",
"=============Xo@@+OOOX==========",
"==============X++OOOOX==========",
"==============XO+OOOoX==========",
"==============.o++OXX===========",
"=============.-;;-@X============",
"============.&&-**O*.===========",
"===========.;;-&;;;-.===========",
"==========.*;;;&;;;;.===========",
"==========X**;-&;;;;*.==========",
"=========X+@O*&-;;;;;*.=========",
"========X+@@+o;;;;;;;*.=========",
"========X@@Oo*;;;;;;;-.=========",
"========X+@@Oo-;;;;--*.=========",
"=========X+@+o*******$#=========",
"=========XO+@o%%%%%%$##=========",
"==========XoOo$$#$$$$$#=========",
"===========Xoo%%$#$$$$$#========",
"===========#$%%%$#$$$$$#========",
"==========#$$%%%#=##$$$#========",
"==========#$$$$$#=#$$$$#========",
"==========  $$$#== #$$#=========",
"==========.    .==     .========",
"===========.    ===     ========",
"================================"
};
