/* XPM */
static char *result[] = {
/* columns rows colors chars-per-pixel */
"32 32 14 1 ",
"  c black",
". c #7B797B",
"X c #9C4900",
"o c #CE6939",
"O c #FFA231",
"+ c #FFCB08",
"@ c #FFF300",
"# c #2971FF",
"$ c #29AAFF",
"% c #A5A2A5",
"& c #BDBABD",
"* c #F8A0AB",
"= c #DEDBDE",
"- c #FFFBFF",
/* pixels */
"********************************",
"**************XXXX**************",
"*************X+@@+X*************",
"************XO@@@@OX************",
"************XO@@@@OX************",
"************XO+@+@OX************",
"************XOo@o+oX************",
"************Xo@o@oOX************",
"************XO@+@+OX************",
"************XO+@@+OX************",
"************oXO++OXo************",
"************.XoOOoX.************",
"************.=----=.************",
"**********...&====&...**********",
"*********.%=%------%=%.*********",
"********.%=&%------%&=%.********",
"********Xo.%&------&%&oX********",
"*******XO+%&=------=&%OOX*******",
"*******XO+.&--------&.OOX*******",
"*******XO+.=--------=.OOX*******",
"********XX.=--------=.XX********",
"**********.&=------=&.**********",
"**********#..&=-==&..#**********",
"**********##$$$$$$$$$#**********",
"***********##$$$$$$$$#**********",
"***********#########$#**********",
"***********#####*#$$$#**********",
"***********     *#$$$#**********",
"************   ** ### **********",
"*****************.   .**********",
"********************************",
"********************************"
};
