/* XPM */
static char *result[] = {
/* columns rows colors chars-per-pixel */
"32 32 2 1 ",
"  c #9A669F",
". c #F8A0AB",
/* pixels */
". . . . . . . . . . . . . . . . ",
" . . . . . . . . . . . . . . . .",
".                             . ",
" .                             .",
".                             . ",
" .                             .",
".                             . ",
" .                             .",
".                             . ",
" .                             .",
".                             . ",
" .                             .",
".                             . ",
" .                             .",
".                             . ",
" .                             .",
".                             . ",
" .                             .",
".                             . ",
" .                             .",
".                             . ",
" .                             .",
".                             . ",
" .                             .",
".                             . ",
" .                             .",
".                             . ",
" .                             .",
".                             . ",
" . . . . . . . . . . . . . . . .",
". . . . . . . . . . . . . . . . ",
"                                "
};
